<?xml version="1.0" encoding="UTF-8"?>
<svg width="410px" height="48px" viewBox="0 0 410 48" version="1.1" xmlns="http://www.w3.org/2000/svg" xmlns:xlink="http://www.w3.org/1999/xlink">
    <!-- Generator: Sketch 42 (36781) - http://www.bohemiancoding.com/sketch -->
    <title>nav_logo</title>
    <desc>Created with Sketch.</desc>
    <defs></defs>
    <g id="Page-1" stroke="none" stroke-width="1" fill="none" fill-rule="evenodd">
        <g id="Desktop-HD" transform="translate(-86.000000, -108.000000)" fill="#79C4BA">
            <g id="nav_logo" transform="translate(86.000000, 108.000000)">
                <path d="M0.0513008221,45.8957463 C0.525701497,45.8957463 0.940795861,45.7602635 1.29659637,45.4892938 C1.65239687,45.2183242 1.83029446,44.8118757 1.83029446,44.2699364 L1.83029446,3.0827504 C1.83029446,2.54081103 1.65239687,2.1644699 1.29659637,1.9537157 C0.940795861,1.7429615 0.525701497,1.63758598 0.0513008221,1.63758598 L0.0513008221,0.0117760092 L16.6848913,0.0117760092 L16.6848913,1.63758598 C16.3883909,1.63758598 16.0770701,1.72790785 15.7509197,1.90855431 C15.4247692,2.08920077 15.2616964,2.36016639 15.2616964,2.7214593 C15.2616964,3.02253672 15.3802948,3.41393151 15.6174951,3.89565539 C15.8546955,4.37737927 16.1215419,4.88920322 16.4180423,5.43114258 L29.1378468,28.9150644 L41.946601,5.70211091 C42.3617015,4.9193096 42.6730223,4.30211014 42.8805726,3.850494 C43.0881229,3.39887786 43.1918965,2.99242943 43.1918965,2.63113652 C43.1918965,1.96876618 42.8064517,1.63758598 42.0355506,1.63758598 L42.0355506,0.0117760092 L58.4912418,0.0117760092 L58.4912418,1.63758598 C58.0168411,1.63758598 57.6017467,1.7429615 57.2459462,1.9537157 C56.8901457,2.1644699 56.7122481,2.54081103 56.7122481,3.0827504 L56.7122481,44.2699364 C56.7122481,44.8118757 56.8901457,45.2183242 57.2459462,45.4892938 C57.6017467,45.7602635 58.0168411,45.8957463 58.4912418,45.8957463 L58.4912418,47.5215563 L44.5261417,47.5215563 L44.5261417,45.8957463 C46.127244,45.8957463 46.9277831,45.3538151 46.9277831,44.2699364 L46.9277831,14.2827747 L46.7498838,14.2827747 L28.8709977,47.5215563 L28.6041487,47.5215563 L11.0810614,14.1924519 L10.903162,14.1924519 L10.903162,44.2699364 C10.903162,45.3538151 11.7333507,45.8957463 13.3937531,45.8957463 L13.3937531,47.5215563 L0.0513008221,47.5215563 L0.0513008221,45.8957463 Z M97.1769409,30.9021655 L89.9720167,15.7279391 L83.6565893,30.9021655 L97.1769409,30.9021655 Z M67.4677472,45.8957463 C68.1793482,45.7753154 68.7575153,45.4290815 69.202266,44.8570344 C69.6470166,44.2849873 69.987987,43.7581097 70.2251873,43.2763858 L83.4786899,13.9214836 C83.8344904,13.0784668 84.1161616,12.4010527 84.3237119,11.8892211 C84.5312622,11.3773895 84.6350358,10.8806192 84.6350358,10.3988953 C84.6350358,10.0376024 84.5609118,9.81179768 84.4126615,9.72147446 C84.2644113,9.63115123 84.1013385,9.52577571 83.9234383,9.40534474 L83.9234383,7.77953477 L97.3548403,7.77953477 L97.3548403,9.40534474 C97.17694,9.52577571 96.9842176,9.61609758 96.7766673,9.67631307 C96.569117,9.73652855 96.4653434,9.97738688 96.4653434,10.3988953 C96.4653434,10.7601882 96.5987666,11.1967439 96.865617,11.7085755 C97.1324674,12.2204072 97.4141386,12.8074993 97.710639,13.4698697 L112.120487,44.1796136 C112.416988,44.721553 112.743133,45.1129477 113.098934,45.3538097 C113.454734,45.5946716 113.840179,45.7753154 114.25528,45.8957463 L114.25528,47.5215563 L101.624425,47.5215563 L101.624425,46.1667147 C101.920925,46.1667147 102.232246,46.0763928 102.558397,45.8957463 C102.884547,45.7150999 103.04762,45.3839197 103.04762,44.9021958 C103.04762,44.5409029 102.988321,44.2097227 102.869721,43.9086453 C102.75112,43.6075678 102.602872,43.2161731 102.424972,42.7344492 L100.023331,37.5860509 L80.9880988,37.5860509 L78.4975077,42.4634808 C78.2603074,42.9452047 78.067585,43.3817604 77.9193348,43.7731611 C77.7710846,44.1645618 77.6969606,44.5107956 77.6969606,44.811873 C77.6969606,45.2935969 77.8452086,45.5946698 78.141709,45.7151008 C78.4382094,45.8355318 78.8533038,45.8957463 79.3870045,45.8957463 L79.3870045,47.5215563 L67.4677472,47.5215563 L67.4677472,45.8957463 Z M146.714501,24.9408623 C152.525909,24.9408623 155.43157,23.0742102 155.43157,19.3408501 C155.43157,17.835463 154.734804,16.646225 153.341252,15.7731005 C151.9477,14.8999759 149.738805,14.4634202 146.714501,14.4634202 L132.660451,14.4634202 L132.660451,24.9408623 L146.714501,24.9408623 Z M146.892401,7.77953477 C152.170108,7.77953477 156.291402,8.66769985 159.256406,10.4440567 C162.221411,12.2204135 163.70389,15.2461962 163.70389,19.5214957 C163.70389,21.1473138 163.407394,22.5924637 162.814394,23.8569889 C162.221393,25.1215141 161.435678,26.2204302 160.457227,27.1537703 C159.478776,28.0871103 158.396565,28.8397926 157.210564,29.4118397 C156.024562,29.9838868 154.808928,30.4204425 153.563627,30.7215199 L162.280695,43.6376769 C162.755096,44.3000473 163.273964,44.7968176 163.837315,45.1280027 C164.400666,45.4591879 165.008482,45.7150999 165.660783,45.8957463 L165.660783,47.5215563 L152.051482,47.5215563 L152.051482,45.8957463 C152.822383,45.8957463 153.207828,45.6247807 153.207828,45.0828414 C153.207828,44.4806865 152.763084,43.5473605 151.873583,42.2828353 L144.846558,31.6247477 L132.482552,31.6247477 L132.482552,44.5409047 C132.482552,45.0226286 132.675274,45.3688624 133.060725,45.5796166 C133.446176,45.7903708 133.816796,45.8957463 134.172596,45.8957463 L134.172596,47.5215563 L122.342288,47.5215563 L122.342288,45.8957463 C123.40969,45.8957463 123.943383,45.444137 123.943383,44.5409047 L123.943383,10.7601864 C123.943383,9.8569541 123.40969,9.40534474 122.342288,9.40534474 L122.342288,7.77953477 L146.892401,7.77953477 Z M186.111798,44.5409047 C186.111798,45.444137 186.67514,45.8957463 187.801842,45.8957463 L187.801842,47.5215563 L176.149433,47.5215563 L176.149433,45.8957463 C177.098235,45.8957463 177.572628,45.444137 177.572628,44.5409047 L177.572628,10.7601864 C177.572628,9.8569541 177.098235,9.40534474 176.149433,9.40534474 L176.149433,7.77953477 L187.801842,7.77953477 L187.801842,9.40534474 C186.67514,9.40534474 186.111798,9.8569541 186.111798,10.7601864 L186.111798,25.4827989 C188.128001,23.7967653 190.203472,22.0957034 192.338275,20.3795621 C194.473079,18.6634207 196.400302,17.0827879 198.120005,15.6376163 C199.839707,14.1924447 201.262888,12.9730994 202.38959,11.9795439 C203.516291,10.9859884 204.079633,10.3687889 204.079633,10.1279269 C204.079633,9.82684952 203.916561,9.58599119 203.59041,9.40534474 C203.26426,9.22469828 202.952939,9.13437641 202.656439,9.13437641 L202.656439,7.77953477 L217.333136,7.77953477 L217.333136,9.40534474 C216.621535,9.64620668 215.55415,10.3386744 214.130948,11.4827686 L199.276351,23.6763434 L213.3304,41.3796075 C214.042001,42.2828398 214.812891,43.2011122 215.643092,44.1344522 C216.473293,45.0677922 217.303482,45.6548844 218.133683,45.8957463 L218.133683,47.5215563 L204.96913,47.5215563 L204.96913,45.8957463 C205.621431,45.8957463 205.947577,45.7151026 205.947577,45.3538097 C205.947577,45.1129477 205.814154,44.7817675 205.547303,44.3602591 C205.280453,43.9387507 204.761585,43.2763903 203.990684,42.3731581 L193.049873,28.8247416 L186.111798,34.4247538 L186.111798,44.5409047 Z M226.932289,45.8957463 C228.058991,45.8957463 228.622333,45.3538151 228.622333,44.2699364 L228.622333,3.26339595 C228.622333,2.17951722 228.058991,1.63758598 226.932289,1.63758598 L226.932289,0.0117760092 L242.142685,0.0117760092 L242.142685,1.63758598 C241.668284,1.63758598 241.431087,1.93865889 241.431087,2.54081374 C241.431087,3.02253763 242.024079,3.86554177 243.210081,5.06985148 L268.73864,31.9860388 L268.73864,3.26339595 C268.73864,2.17951722 267.96775,1.63758598 266.425948,1.63758598 L266.425948,0.0117760092 L279.85735,0.0117760092 L279.85735,1.63758598 C278.730648,1.63758598 278.167306,2.17951722 278.167306,3.26339595 L278.167306,44.2699364 C278.167306,45.3538151 278.730648,45.8957463 279.85735,45.8957463 L279.85735,47.5215563 L265.447501,47.5215563 L265.447501,45.8957463 C266.218403,45.8957463 266.603847,45.6247807 266.603847,45.0828414 C266.603847,44.661333 266.129454,43.9688653 265.180652,43.0054175 L238.050999,14.2827747 L238.050999,44.2699364 C238.050999,45.3538151 238.73294,45.8957463 240.096842,45.8957463 L240.096842,47.5215563 L226.932289,47.5215563 L226.932289,45.8957463 Z M314.985062,13.9214836 C313.087459,13.9214836 311.234359,14.2376101 309.425707,14.8698727 C307.617054,15.5021353 306.001151,16.405354 304.577949,17.579556 C303.154747,18.753758 302.013237,20.1838543 301.153386,21.8698879 C300.293535,23.5559214 299.863616,25.4827881 299.863616,27.6505455 C299.863616,29.818303 300.293535,31.7451696 301.153386,33.4312032 C302.013237,35.1172368 303.154747,36.5473331 304.577949,37.7215351 C306.001151,38.8957371 307.617054,39.7989558 309.425707,40.4312184 C311.234359,41.063481 313.087459,41.3796075 314.985062,41.3796075 C316.882664,41.3796075 318.735764,41.063481 320.544417,40.4312184 C322.353069,39.7989558 323.968972,38.8957371 325.392175,37.7215351 C326.815377,36.5473331 327.956886,35.1172368 328.816737,33.4312032 C329.676588,31.7451696 330.106508,29.818303 330.106508,27.6505455 C330.106508,25.4827881 329.676588,23.5559214 328.816737,21.8698879 C327.956886,20.1838543 326.815377,18.753758 325.392175,17.579556 C323.968972,16.405354 322.353069,15.5021353 320.544417,14.8698727 C318.735764,14.2376101 316.882664,13.9214836 314.985062,13.9214836 Z M314.985062,7.23759811 C318.246566,7.23759811 321.3153,7.65910018 324.191354,8.50211698 C327.067408,9.34513377 329.572799,10.60964 331.707602,12.2956736 C333.842405,13.9817072 335.532432,16.1042712 336.777734,18.6634293 C338.023036,21.2225874 338.645677,24.2182629 338.645677,27.6505455 C338.645677,31.0828282 338.023036,34.0785037 336.777734,36.6376618 C335.532432,39.1968199 333.842405,41.3193839 331.707602,43.0054175 C329.572799,44.6914511 327.067408,45.9107964 324.191354,46.6634899 C321.3153,47.4161835 318.246566,47.7925246 314.985062,47.7925246 C311.723557,47.7925246 308.654824,47.4161835 305.77877,46.6634899 C302.902716,45.9107964 300.397325,44.6914511 298.262522,43.0054175 C296.127719,41.3193839 294.437691,39.1968199 293.19239,36.6376618 C291.947088,34.0785037 291.324446,31.0828282 291.324446,27.6505455 C291.324446,24.2182629 291.947088,21.2225874 293.19239,18.6634293 C294.437691,16.1042712 296.127719,13.9817072 298.262522,12.2956736 C300.397325,10.60964 302.902716,9.34513377 305.77877,8.50211698 C308.654824,7.65910018 311.723557,7.23759811 314.985062,7.23759811 Z M354.738157,9.40534474 C353.967256,9.40534474 353.581811,9.82684681 353.581811,10.6698636 C353.581811,10.970941 353.70041,11.437604 353.93761,12.0698666 C354.17481,12.7021292 354.471306,13.4999724 354.827107,14.4634202 L362.654679,36.4118548 L362.832578,36.4118548 L370.393301,14.9150341 C370.689801,14.0720173 370.971473,13.2741741 371.238323,12.5214805 C371.505173,11.768787 371.638597,11.1515875 371.638597,10.6698636 C371.638597,9.82684681 371.164203,9.40534474 370.215402,9.40534474 L370.215402,7.77953477 L382.935206,7.77953477 L382.935206,9.40534474 C381.867805,9.40534474 381.334112,9.76663223 381.334112,10.4892181 C381.334112,10.9107265 381.48236,11.5279259 381.77886,12.340835 C382.075361,13.153744 382.371857,13.9214799 382.668357,14.6440658 L390.495929,36.4118548 L398.76825,14.4634202 C399.06475,13.6204034 399.316772,12.8827748 399.524322,12.2505122 C399.731872,11.6182496 399.835646,11.091372 399.835646,10.6698636 C399.835646,9.82684681 399.361252,9.40534474 398.412451,9.40534474 L398.412451,7.77953477 L409.70906,7.77953477 L409.70906,9.40534474 C408.700959,9.40534474 407.811471,10.5193145 407.04057,12.7472875 L396.811357,40.2957342 C396.455556,41.3193975 396.099761,42.2376698 395.74396,43.0505789 C395.38816,43.8634879 395.210262,44.4204728 395.210262,44.7215502 C395.210262,45.5043516 395.625357,45.8957463 396.455558,45.8957463 L396.455558,47.5215563 L384.002602,47.5215563 L384.002602,45.8957463 C384.477003,45.8355309 384.773499,45.7301553 384.892099,45.5796166 C385.010699,45.4290779 385.069999,45.1129514 385.069999,44.6312275 C385.069999,44.3903655 384.803152,43.4871468 384.269451,41.9215442 C383.735751,40.3559416 383.038985,38.383914 382.179134,36.0054023 C381.319283,33.6268907 380.38532,30.9623954 379.377219,28.0118366 C378.369117,25.0612779 377.390681,22.0806561 376.441879,19.0698818 L376.26398,19.0698818 C376.14538,19.6118212 375.819234,20.5903081 375.285534,22.005372 C374.751833,23.4204359 374.129191,25.0462296 373.41759,26.8828019 C372.705989,28.7193742 371.949924,30.6462409 371.149373,32.6634596 C370.348822,34.6806784 369.607582,36.5473304 368.925631,38.2634717 C368.24368,39.9796131 367.680338,41.424763 367.235587,42.598965 C366.790837,43.773167 366.568465,44.450581 366.568465,44.6312275 C366.568465,45.1129514 366.657414,45.4441316 366.835314,45.624778 C367.013214,45.8054245 367.369009,45.8957463 367.90271,45.8957463 L367.90271,47.5215563 L356.961899,47.5215563 L356.961899,45.8957463 C357.199099,45.8957463 357.406647,45.8656391 357.584547,45.8054236 C357.762447,45.7452081 357.851396,45.534457 357.851396,45.1731641 C357.851396,44.8118712 357.747622,44.3452082 357.540072,43.7731611 C357.332522,43.201114 357.169449,42.7645583 357.050849,42.4634808 L345.309491,11.1214775 C344.95369,10.1580297 344.331049,9.58599119 343.441547,9.40534474 L343.441547,7.77953477 L354.738157,7.77953477 L354.738157,9.40534474 Z" id="MarkNow"></path>
                <path d="M25.1854611,40.3826262 C25.1854611,40.3826262 27.0983405,44.3991188 26.9261527,45.1347156 C26.7991354,45.6773415 25.6881013,45.842268 25.6881013,45.842268 L25.6881013,47.5469542 L31.9577582,47.5469542 L31.9577582,45.842268 C31.9577582,45.842268 30.8029505,45.6915872 30.7361071,45.1347156 C30.6692637,44.577844 32.2183529,40.3826262 32.2183529,40.3826262 L25.1854611,40.3826262 Z" id="Path"></path>
            </g>
        </g>
    </g>
</svg>